<svg width="16" height="18" viewBox="0 0 16 18" fill="none" xmlns="http://www.w3.org/2000/svg">
<g clip-path="url(#clip0_3_3390)">
<mask id="mask0_3_3390" style="mask-type:alpha" maskUnits="userSpaceOnUse" x="0" y="0" width="16" height="17">
<path d="M0 0.544969V16.853H15.982V0.542969H0V0.544969Z" fill="white"/>
</mask>
<g mask="url(#mask0_3_3390)">
<path fill-rule="evenodd" clip-rule="evenodd" d="M5.48991 0.990938C3.48396 1.69024 1.82768 3.14074 0.869913 5.03694C0.542005 5.68553 0.303181 6.37543 0.159913 7.08794C-0.198708 8.87518 0.0497662 10.731 0.865913 12.3609C1.39947 13.4173 2.15465 14.3461 3.07991 15.0839C3.95427 15.7805 4.96298 16.2891 6.04291 16.5779C7.40191 16.9419 8.84791 16.9339 10.2159 16.6219C11.4603 16.3408 12.6108 15.7428 13.5559 14.8859C14.5429 13.9789 15.2479 12.7859 15.6209 11.5019C16.0289 10.1039 16.0809 8.60894 15.8269 7.17194H8.15591V10.3529H12.5999C12.5112 10.861 12.3211 11.346 12.0409 11.7789C11.7606 12.2119 11.3961 12.5839 10.9689 12.8729C10.4259 13.2323 9.81385 13.4741 9.17191 13.5829C8.53191 13.6929 7.86491 13.7059 7.22491 13.5789C6.57257 13.4452 5.95496 13.1779 5.41091 12.7939C4.53973 12.1787 3.88607 11.3031 3.54391 10.2929C3.19559 9.26395 3.19559 8.14893 3.54391 7.11994C3.78917 6.39698 4.19381 5.73841 4.72791 5.19294C5.38972 4.51216 6.23728 4.04126 7.16491 3.83894C7.95844 3.67086 8.78139 3.70387 9.55891 3.93494C10.2177 4.13725 10.8196 4.49181 11.3159 4.96994L12.8159 3.46994C13.0789 3.20294 13.3549 2.94494 13.6089 2.66794C12.8482 1.95984 11.956 1.40776 10.9829 1.04294C9.21221 0.397253 7.27353 0.378897 5.49091 0.990938" fill="white"/>
</g>
<mask id="mask1_3_3390" style="mask-type:alpha" maskUnits="userSpaceOnUse" x="0" y="0" width="14" height="8">
<path d="M13.6091 0.543945H0.870117V7.11395H13.6101V0.543945H13.6091Z" fill="white"/>
</mask>
<g mask="url(#mask1_3_3390)">
<path fill-rule="evenodd" clip-rule="evenodd" d="M5.49112 0.991246C7.27363 0.380099 9.21156 0.397037 10.9831 1.03925C11.9561 1.39925 12.8461 1.95925 13.6091 2.66525C13.3551 2.94125 13.0791 3.20025 12.8161 3.46725L11.3161 4.96725C10.8187 4.49061 10.2172 4.13626 9.55912 3.93225C8.78204 3.69867 7.95854 3.6653 7.16512 3.83525C6.24512 4.03325 5.39012 4.51525 4.72812 5.19025C4.1935 5.73415 3.78874 6.39188 3.54412 7.11425C2.65412 6.42325 1.76412 5.73425 0.870117 5.04125C1.82648 3.14308 3.48308 1.69086 5.49012 0.991246" fill="#EA4335"/>
</g>
<path fill-rule="evenodd" clip-rule="evenodd" d="M0.165281 7.08323C0.309281 6.37323 0.545281 5.68123 0.875281 5.03223C1.76528 5.72423 2.65528 6.41223 3.54928 7.10523C3.19849 8.13415 3.19849 9.2503 3.54928 10.2792C2.65928 10.9722 1.76928 11.6642 0.879281 12.3522C0.0561586 10.726 -0.195356 8.8699 0.165281 7.08323" fill="#FBBC05"/>
<path fill-rule="evenodd" clip-rule="evenodd" d="M8.15637 7.16699H15.8274C16.0882 8.60725 16.0178 10.088 15.6214 11.497C15.2484 12.782 14.5434 13.974 13.5564 14.882L10.9664 12.87C11.3934 12.5808 11.7579 12.2085 12.0379 11.7754C12.318 11.3422 12.5079 10.8571 12.5964 10.349H8.15137C8.15637 9.28899 8.15637 8.22699 8.15637 7.16699Z" fill="#4285F4"/>
<path fill-rule="evenodd" clip-rule="evenodd" d="M0.870117 12.3572C1.76012 11.6682 2.65012 10.9762 3.54012 10.2832C3.88344 11.2933 4.53681 12.1692 5.40712 12.7862C5.95188 13.1696 6.56969 13.4368 7.22212 13.5712C7.86212 13.7022 8.52412 13.6852 9.16812 13.5752C9.81041 13.4665 10.4229 13.2247 10.9661 12.8652L13.5561 14.8772C12.6231 15.7412 11.4521 16.3282 10.2161 16.6132C8.84812 16.9242 7.40212 16.9332 6.04312 16.5692C4.96249 16.2822 3.95342 15.7734 3.08012 15.0752C2.15647 14.3388 1.40264 13.4117 0.870117 12.3572" fill="#34A853"/>
</g>
<defs>
<clipPath id="clip0_3_3390">
<rect width="16" height="17" fill="white" transform="translate(0 0.5)"/>
</clipPath>
</defs>
</svg>
