<svg width="265" height="63" viewBox="0 0 265 63" fill="none" xmlns="http://www.w3.org/2000/svg">
<path d="M57.2201 8.21338L56.8222 21.6806C56.8222 29.0807 57.0344 35.7191 57.4589 41.5957C57.8833 47.4178 58.8383 53.7569 60.3239 60.6129C59.1567 61.5924 57.2997 62.0821 54.7531 62.0821C49.8189 62.0821 47.3519 59.8784 47.3519 55.4709C47.3519 51.8253 47.511 46.248 47.8293 38.739C48.2007 31.23 48.3864 25.3534 48.3864 21.1092C45.5214 25.3534 42.4973 30.6043 39.314 36.8617C36.1837 43.0648 34.6186 46.8737 34.6186 48.2884C34.6186 49.7032 34.7512 50.7914 35.0165 51.5532C33.8493 52.315 32.2841 52.6959 30.3211 52.6959C28.4111 52.6959 26.7929 52.1517 25.4665 51.0635C24.1932 49.9752 23.1056 48.4789 22.2036 46.5744C21.3548 44.67 19.8162 40.9427 17.5878 35.3926C15.4126 29.7881 13.423 24.9725 11.6191 20.946C10.2397 29.7065 9.54995 37.4603 9.54995 44.2075C9.54995 50.9547 9.76217 56.4232 10.1866 60.6129C8.48885 61.2659 6.79108 61.5924 5.09331 61.5924C1.69777 61.5924 0 59.8512 0 56.3687C0 53.7025 0.583608 48.3973 1.75082 40.453C2.9711 32.4543 3.58123 25.7071 3.58123 20.2114C3.58123 14.7157 3.28943 9.5737 2.70582 4.78537C5.57081 4.02359 7.79913 3.6427 9.39079 3.6427C12.3088 3.6427 14.2719 4.70376 15.2799 6.82586C16.8716 10.2539 19.206 15.7224 22.2832 23.2313C25.4135 30.6859 27.9601 36.4264 29.9232 40.453C30.4537 39.3103 31.674 36.8617 33.584 33.1073C35.5471 29.2984 37.1652 26.0608 38.4386 23.3946C39.7649 20.6739 41.0913 17.4636 42.4177 13.7635C43.7971 10.009 44.6726 6.74424 45.0439 3.96918C46.9539 3.42505 48.8109 3.15299 50.6148 3.15299C52.4717 3.15299 54.0368 3.56109 55.3101 4.37728C56.5835 5.19347 57.2201 6.47217 57.2201 8.21338ZM104.358 23.1497C102.925 29.4072 102.209 35.6919 102.209 42.0038C102.209 48.2612 102.899 54.4643 104.278 60.6129C102.368 61.2659 100.405 61.5924 98.389 61.5924C96.3729 61.5924 94.9669 60.9938 94.1711 59.7968C93.3752 58.5453 92.9773 56.7768 92.9773 54.4915C92.9773 52.1517 93.3222 48.9686 94.0119 44.942C90.245 53.2128 86.6107 58.4364 83.109 60.6129C81.5172 61.5924 79.8725 62.0821 78.1747 62.0821C74.1425 62.0821 71.0123 60.5585 68.784 57.5114C66.5556 54.4099 65.4415 50.5738 65.4415 46.0031C65.4415 39.0383 67.3249 32.944 71.0919 27.7204C74.8588 22.4423 79.7399 19.8033 85.7353 19.8033C91.7836 19.8033 97.9911 20.9188 104.358 23.1497ZM93.9323 28.0469C91.1204 27.1763 88.7329 26.741 86.7699 26.741C82.7907 26.741 79.8195 27.6388 77.8564 29.4344C76.0525 34.0051 75.1506 38.6574 75.1506 43.3913C75.1506 45.8943 75.522 48.4245 76.2647 50.9819C77.0606 53.5393 78.2543 54.818 79.846 54.818C81.7029 54.818 84.0906 52.0157 87.0086 46.4112C89.9267 40.8067 92.2346 34.6852 93.9323 28.0469ZM114.458 8.29499C116.156 7.4244 117.88 6.98909 119.631 6.98909C121.382 6.98909 122.788 7.56043 123.849 8.7031C124.963 9.84577 125.52 11.5326 125.52 13.7635C125.52 15.9944 125.387 18.5246 125.122 21.3541C129.101 21.3541 132.895 20.7827 136.503 19.6401C137.139 20.7283 137.458 22.007 137.458 23.4762C137.458 24.8909 136.821 26.0608 135.548 26.9858C134.327 27.8564 133.081 28.2917 131.807 28.2917C130.534 28.2917 129.101 28.1285 127.51 27.802C125.918 27.4755 124.883 27.2851 124.406 27.2307C124.353 27.7204 124.194 28.6998 123.928 30.169C123.716 31.6381 123.531 32.9168 123.371 34.0051C122.947 36.9978 122.735 40.2081 122.735 43.6361C122.735 51.0907 125.096 54.818 129.818 54.818C131.568 54.818 133.585 54.1922 135.866 52.9407C136.556 53.9746 136.9 55.3077 136.9 56.9401C136.9 58.5725 136.025 59.8512 134.274 60.7762C132.576 61.6468 130.534 62.0821 128.146 62.0821C118.809 62.0821 114.14 56.6408 114.14 45.7582C114.14 44.1803 114.352 41.3236 114.776 37.1882C115.254 33.0528 115.493 29.7065 115.493 27.149C112.946 27.3123 110.903 27.7748 109.365 28.5366C108.728 27.5571 108.41 26.4417 108.41 25.1902C108.41 23.8843 108.861 22.8232 109.763 22.007C110.665 21.1364 111.779 20.7011 113.105 20.7011C114.432 20.7011 115.307 20.7283 115.731 20.7827C115.784 20.3474 115.811 19.7761 115.811 19.0687C115.811 14.9878 115.36 11.3965 114.458 8.29499ZM158.589 62.5718C152.912 62.5718 148.562 61.021 145.538 57.9195C142.514 54.818 141.001 50.3561 141.001 44.534C141.001 37.4603 142.938 31.5021 146.811 26.6593C150.684 21.7622 155.83 19.3136 162.25 19.3136C165.911 19.3136 168.882 20.0754 171.163 21.5989C173.445 23.0681 174.585 25.2718 174.585 28.2101C174.585 30.1145 173.843 31.8286 172.357 33.3521C170.872 34.8213 169.2 35.5558 167.343 35.5558C166.919 35.5558 166.388 35.5014 165.752 35.3926C165.911 34.6852 165.991 34.0595 165.991 33.5154C165.991 31.5565 165.487 29.8969 164.478 28.5366C163.47 27.1763 161.799 26.4961 159.465 26.4961C157.13 26.4961 154.955 27.4755 152.939 29.4344C151.506 33.2433 150.79 38.0044 150.79 43.7178C150.79 51.4988 153.655 55.3893 159.385 55.3893C162.462 55.3893 164.744 54.3827 166.229 52.3694C167.768 50.3017 168.537 47.9892 168.537 45.4318C170.341 45.4318 171.906 45.8943 173.233 46.8193C174.559 47.7443 175.222 49.023 175.222 50.6554C175.222 54.1922 173.445 57.0761 169.89 59.307C166.388 61.4835 162.622 62.5718 158.589 62.5718ZM219 28.6182L218.204 46.5744C218.204 51.3628 218.974 56.2055 220.512 61.1027C218.868 61.7556 217.196 62.0821 215.499 62.0821C210.883 62.0821 208.575 59.5791 208.575 54.5731C208.575 50.873 208.893 46.52 209.53 41.514C210.167 36.5081 210.485 33.4337 210.485 32.2911C210.485 29.4616 209.238 28.0469 206.744 28.0469C204.092 28.0469 201.147 30.6043 197.911 35.7191C194.674 40.7795 192.817 45.0237 192.34 48.4517C192.446 50.0296 192.977 54.0834 193.932 60.6129C192.287 61.2659 190.483 61.5924 188.52 61.5924C184.435 61.5924 182.392 59.5519 182.392 55.4709C182.392 53.5121 182.684 49.676 183.268 43.9626C183.851 38.1949 184.143 33.5698 184.143 30.0873C184.143 18.4974 183.506 8.92075 182.233 1.35737C183.931 0.704407 185.682 0.37793 187.485 0.37793C189.289 0.37793 190.775 1.00368 191.942 2.25517C193.162 3.45226 193.772 5.11185 193.772 7.23395C193.772 9.35605 193.481 13.7363 192.897 20.3747C192.366 27.013 192.101 32.1822 192.101 35.8823C193.958 31.8558 196.664 28.1829 200.219 24.8637C203.826 21.4901 207.408 19.8033 210.962 19.8033C216.321 19.8033 219 22.7416 219 28.6182ZM265 23.1497C263.568 29.4072 262.851 35.6919 262.851 42.0038C262.851 48.2612 263.541 54.4643 264.92 60.6129C263.01 61.2659 261.047 61.5924 259.031 61.5924C257.015 61.5924 255.609 60.9938 254.813 59.7968C254.018 58.5453 253.62 56.7768 253.62 54.4915C253.62 52.1517 253.965 48.9686 254.654 44.942C250.887 53.2128 247.253 58.4364 243.751 60.6129C242.16 61.5924 240.515 62.0821 238.817 62.0821C234.785 62.0821 231.655 60.5585 229.426 57.5114C227.198 54.4099 226.084 50.5738 226.084 46.0031C226.084 39.0383 227.967 32.944 231.734 27.7204C235.501 22.4423 240.382 19.8033 246.378 19.8033C252.426 19.8033 258.633 20.9188 265 23.1497ZM254.575 28.0469C251.763 27.1763 249.375 26.741 247.412 26.741C243.433 26.741 240.462 27.6388 238.499 29.4344C236.695 34.0051 235.793 38.6574 235.793 43.3913C235.793 45.8943 236.164 48.4245 236.907 50.9819C237.703 53.5393 238.897 54.818 240.488 54.818C242.345 54.818 244.733 52.0157 247.651 46.4112C250.569 40.8067 252.877 34.6852 254.575 28.0469Z" fill="#0C7FDA"/>
</svg>
