<svg width="32" height="40" viewBox="0 0 32 40" fill="none" xmlns="http://www.w3.org/2000/svg">
<g clip-path="url(#clip0_51_2940)">
<path d="M28.4847 20.6736H14.4131C13.8075 20.6736 13.3165 20.2183 13.3165 19.6568C13.3165 19.095 13.8075 18.6397 14.4131 18.6397H28.484L23.8884 13.807C23.4891 13.3879 23.5313 12.7477 23.9829 12.3772C24.4348 12.0064 25.125 12.0454 25.5247 12.4646L31.7262 18.9859C32.0972 19.375 32.0875 19.955 31.7223 20.3329L25.5243 26.8494C25.125 27.2688 24.4344 27.3079 23.9825 26.9367C23.5309 26.5662 23.4888 25.9257 23.8881 25.5066L28.4847 20.6736ZM24.6836 31.8753C24.6836 31.3135 25.1794 30.8582 25.7909 30.8582C26.4028 30.8582 26.8986 31.3135 26.8986 31.8753V36.4319C26.8986 37.2238 26.5442 37.9449 25.9759 38.4668C25.4069 38.9889 24.6215 39.314 23.7599 39.314H3.13906C2.27668 39.314 1.49096 38.9895 0.921962 38.4674C0.354011 37.9459 0 37.2257 0 36.4319V2.88234C0 2.08889 0.352966 1.36807 0.921265 0.845922C1.48956 0.3241 2.27459 0 3.13906 0H23.7595C24.6233 0 25.408 0.325059 25.9763 0.846562C26.5453 1.36902 26.8982 2.09081 26.8982 2.88234V7.43861C26.8982 8.00011 26.4024 8.45538 25.7906 8.45538C25.179 8.45538 24.6832 8.00011 24.6832 7.43861V2.88234C24.6832 2.65135 24.5783 2.43923 24.4097 2.28437C24.2418 2.13016 24.0111 2.03386 23.7592 2.03386H3.13906C2.8861 2.03386 2.65508 2.12984 2.48749 2.28405C2.31919 2.43795 2.21501 2.65007 2.21501 2.88234V36.4319C2.21501 36.6636 2.31989 36.875 2.48783 37.0293C2.65648 37.1841 2.88749 37.2804 3.13906 37.2804H23.7595C24.0104 37.2804 24.2407 37.1838 24.4093 37.0289C24.5783 36.8741 24.6836 36.6623 24.6836 36.4319V31.8753Z" fill="black"/>
</g>
<defs>
<clipPath id="clip0_51_2940">
<rect width="32" height="39.3143" fill="white"/>
</clipPath>
</defs>
</svg>
