<svg width="555" height="348" viewBox="0 0 555 348" fill="none" xmlns="http://www.w3.org/2000/svg">
<g filter="url(#filter0_b_3_3325)">
<g clip-path="url(#clip0_3_3325)">
<path d="M415.816 0.524958H304.794C299.437 0.524956 294.239 2.52293 290.055 6.19047C285.871 9.858 282.949 14.9768 281.771 20.7055L225.674 293.451C225.062 296.426 225.051 299.512 225.642 302.492C226.234 305.472 227.412 308.274 229.096 310.702C230.779 313.13 232.927 315.125 235.388 316.547C237.849 317.969 240.564 318.783 243.343 318.933L357.474 325.097C363.585 325.427 369.598 323.309 374.389 319.137C379.18 314.965 382.422 309.025 383.511 302.425L415.333 109.59L417.7 110.332L423.789 73.7825L421.352 73.1147L430.235 19.2877C430.615 16.9822 430.527 14.6131 429.976 12.3493C429.426 10.0854 428.426 7.98258 427.049 6.19069C425.672 4.39881 423.952 2.96198 422.01 1.98265C420.068 1.00332 417.953 0.505591 415.816 0.524958Z" fill="#3F3D56"/>
<path d="M319.41 6.4043H306.45C302.729 6.4043 299.119 7.79953 296.22 10.3584C293.322 12.9172 291.309 16.4857 290.515 20.4716L236.67 290.992C236.36 292.55 236.36 294.162 236.671 295.72C236.981 297.277 237.595 298.742 238.469 300.016C239.344 301.29 240.459 302.341 241.739 303.099C243.018 303.857 244.432 304.304 245.883 304.408L359.645 312.581C362.854 312.811 366.029 311.738 368.562 309.567C371.096 307.395 372.812 304.277 373.382 300.808L419.329 21.1982C419.626 19.3885 419.558 17.5292 419.128 15.7517C418.698 13.9742 417.918 12.3217 416.842 10.9109C415.766 9.50002 414.421 8.36523 412.901 7.58655C411.381 6.80788 409.724 6.4043 408.046 6.4043H395.752C394.562 6.4043 393.405 6.83428 392.461 7.62768C391.517 8.42107 390.837 9.53363 390.528 10.7931C390.255 11.905 389.655 12.8872 388.821 13.5876C387.987 14.288 386.966 14.6676 385.916 14.6676H327.551C325.494 14.6676 323.512 13.8165 322.003 12.2845C320.494 10.7525 319.568 8.65245 319.41 6.4043L319.41 6.4043Z" fill="url(#paint0_linear_3_3325)"/>
<path d="M102.312 347.233C102.312 347.233 187.21 333.578 239.811 347.233H102.312Z" fill="#3F3D56"/>
<path d="M349.952 261.22C349.732 261.22 349.512 261.213 349.291 261.197L341.423 260.631L264.318 255.093C263.036 255.002 261.793 254.574 260.695 253.844C259.597 253.114 258.676 252.104 258.01 250.9C256.93 248.976 256.574 246.667 257.017 244.461L297.238 42.3949C297.865 39.3124 299.428 36.5547 301.672 34.5738C303.916 32.5929 306.708 31.5063 309.589 31.4922H385.477C386.797 31.4928 388.101 31.8109 389.297 32.4241C390.493 33.0374 391.552 33.9308 392.399 35.0414C393.245 36.152 393.86 37.4527 394.198 38.8518C394.536 40.2509 394.59 41.7143 394.356 43.1388L360.037 251.987C359.72 253.905 358.954 255.701 357.815 257.197L357.719 257.449L357.62 257.45C356.778 258.489 355.767 259.348 354.64 259.984L354.584 260.012C353.148 260.808 351.561 261.222 349.952 261.22ZM309.589 32.5037C306.918 32.5168 304.33 33.5241 302.25 35.3604C300.17 37.1966 298.721 39.753 298.14 42.6105L257.919 244.676C257.551 246.546 257.824 248.499 258.685 250.163C259.546 251.826 260.935 253.085 262.588 253.699C263.168 253.911 263.77 254.04 264.38 254.083L349.35 260.188C351.012 260.307 352.673 259.936 354.16 259.113L354.212 259.087C355.231 258.513 356.145 257.74 356.908 256.804L357.058 256.612C358.122 255.238 358.836 253.58 359.129 251.807L393.448 42.9595L393.902 43.0491L393.448 42.9595C393.658 41.6807 393.609 40.367 393.306 39.111C393.002 37.8551 392.451 36.6874 391.691 35.6904C390.93 34.6933 389.98 33.8912 388.906 33.3406C387.833 32.7901 386.662 32.5044 385.477 32.5037H309.589Z" fill="#3F3D56"/>
<path d="M267.628 237.577C267.628 237.577 253.148 256.087 256.192 257.296C259.235 258.505 273.444 245.278 272.531 240.602L267.628 237.577Z" fill="#FFB9B9"/>
<path d="M352.854 254.731C352.854 254.731 360.715 277.541 357.479 277.541C354.242 277.541 344.993 259.8 347.305 255.745L352.854 254.731Z" fill="#FFB9B9"/>
<path d="M357.746 116.666C356.448 114.654 354.851 112.896 353.482 110.942C350.324 106.437 349.231 100.434 344.993 96.9789C340.8 93.5604 334.146 90.1958 328.898 90.4654C321.982 90.8206 316.496 96.7016 311.729 102.205C308.085 106.41 304.442 110.615 300.799 114.821C298.163 117.863 295.43 121.093 294.48 125.157C293.567 129.063 294.458 133.259 296.13 136.851C297.867 140.495 300.303 143.683 303.271 146.196C306.93 140.674 312.055 133.049 312.055 133.049L313.249 152.015C319.447 154.267 326.105 154.709 332.637 154.212L334.572 146.435L336.603 153.781C344.409 152.647 352.251 149.692 357.083 143.015C362.425 135.633 362.709 124.359 357.746 116.666Z" fill="#2F2E41"/>
<path d="M327.884 133.586C335.801 133.586 342.219 126.551 342.219 117.873C342.219 109.194 335.801 102.159 327.884 102.159C319.967 102.159 313.549 109.194 313.549 117.873C313.549 126.551 319.967 133.586 327.884 133.586Z" fill="#FFB9B9"/>
<path d="M318.635 125.476C318.635 125.476 319.559 137.641 313.548 138.655C307.536 139.668 301.062 138.655 301.062 142.71C301.062 146.765 305.687 183.768 305.687 183.768L317.247 182.754L333.432 165.52L342.218 146.765C342.218 146.765 331.583 141.696 336.207 126.489L318.635 125.476Z" fill="#FFB9B9"/>
<path d="M311.699 176.671L307.075 162.985L308 144.231C308 144.231 318.153 142.71 317.932 133.586L310.312 137.134L292.74 140.175V157.917C292.74 157.917 286.728 168.561 293.665 179.206L296.902 201.509L330.196 198.974L340.832 183.768L354.242 154.875L340.369 143.724L342.219 140.682L335.143 135.624L336.208 145.244L332.971 151.327C332.971 151.327 318.173 154.368 311.699 176.671Z" fill="white"/>
<path d="M295.514 141.189L292.74 140.175C292.74 140.175 287.191 142.709 287.191 150.819C287.191 158.93 264.994 239.018 264.994 239.018L275.167 242.059L289.04 205.056L297.364 174.136L295.514 141.189Z" fill="white"/>
<path d="M350.543 154.875H354.242C354.242 154.875 356.554 152.848 356.092 167.547C355.63 182.247 357.479 259.801 357.479 259.801L344.069 258.787L340.832 175.151L350.543 154.875Z" fill="white"/>
<path d="M341.454 260.126L316.183 258.31L310.042 257.87L296.056 256.864C295.844 256.039 295.66 255.326 295.512 254.729C290.889 235.975 295.978 209.62 295.978 209.62C295.978 209.62 295.05 207.086 295.978 205.563C296.901 204.041 296.439 204.552 294.589 202.524C292.739 200.496 294.589 202.524 295.512 199.99C296.439 197.451 295.512 199.99 295.512 197.962C295.56 196.856 295.231 195.771 294.589 194.917C294.97 194.588 295.385 194.31 295.826 194.088C304.625 189.465 332.867 195.155 332.867 195.155C332.867 195.155 332.849 195.18 332.817 195.231C332.595 195.585 331.755 197.132 332.969 198.468C334.358 199.99 332.046 199.99 331.585 201.507C331.119 203.03 331.585 201.507 332.046 203.03C332.507 204.552 331.119 206.575 331.119 206.575C343.023 217.54 343.65 240.467 341.454 260.126Z" fill="#2F2E41"/>
<path d="M316.182 258.311L310.041 257.871C311.084 252.677 311.697 249.662 311.697 249.662L316.182 258.311Z" fill="#2F2E41"/>
<path d="M312.393 106.467C312.393 106.467 323.953 121.674 347.074 113.056L340.601 100.384L325.34 95.3154L312.393 106.467Z" fill="#2F2E41"/>
<path d="M205.545 330.108C205.545 330.108 212.078 336.139 215.517 335.762C218.955 335.385 225.488 335.385 222.737 339.531C219.987 343.677 208.64 345.939 203.826 346.315C199.012 346.692 188.353 347.069 189.041 344.808C189.728 342.546 190.416 331.993 193.167 331.239C195.917 330.485 205.545 330.108 205.545 330.108Z" fill="#575A89"/>
<path d="M168.048 324.187C168.048 324.187 172.862 331.92 176.267 332.57C179.671 333.22 185.964 335.145 182.298 338.328C178.632 341.511 167.148 340.346 162.419 339.291C157.689 338.236 147.33 335.459 148.547 333.483C149.764 331.508 153.014 321.545 155.848 321.629C158.682 321.714 168.048 324.187 168.048 324.187Z" fill="#575A89"/>
<path d="M209.371 213.59C209.371 213.59 213.796 246.811 212.765 252.842C211.733 258.872 211.046 268.295 211.046 268.295C211.046 268.295 211.733 276.21 211.046 279.979C210.358 283.748 206.232 319.554 206.232 320.308C206.232 321.062 206.92 323.323 206.232 325.208C205.544 327.092 204.169 325.585 206.232 328.6C208.295 331.615 206.92 332.369 206.576 332.369C206.232 332.369 192.822 333.877 192.134 332.369C191.446 330.862 192.478 330.485 192.134 328.6C191.79 326.716 191.446 326.339 190.759 325.962C190.071 325.585 188.696 326.339 189.727 324.454C190.759 322.57 193.166 320.308 192.478 319.177C191.79 318.047 192.822 309.755 192.822 309.755C192.822 309.755 193.51 291.286 193.853 279.979C194.197 268.672 190.759 256.988 190.759 256.988C190.331 266.239 187.196 275.094 181.819 282.24C172.879 293.925 168.409 315.785 168.409 315.785C168.409 315.785 166.346 319.177 167.377 322.193C168.409 325.208 171.503 323.323 168.409 325.208C165.314 327.092 154.655 324.454 153.623 323.323C152.592 322.193 154.999 320.685 154.311 317.67C153.623 314.654 150.873 315.408 153.28 313.901C155.686 312.393 156.374 312.77 156.374 311.262C156.374 309.755 162.563 276.964 172.191 267.541L172.879 233.242C172.879 233.242 164.283 209.12 173.223 206.859C182.163 204.597 209.371 213.59 209.371 213.59Z" fill="#2F2E41"/>
<path d="M203.138 124.316C203.138 124.316 197.292 140.146 198.668 142.408C200.043 144.669 181.819 134.869 181.819 134.869C181.819 134.869 187.665 119.039 187.665 117.155C187.665 115.27 203.138 124.316 203.138 124.316Z" fill="#FFB9B9"/>
<path d="M198.84 128.274C205.866 128.274 211.562 122.03 211.562 114.328C211.562 106.626 205.866 100.383 198.84 100.383C191.813 100.383 186.117 106.626 186.117 114.328C186.117 122.03 191.813 128.274 198.84 128.274Z" fill="#FFB9B9"/>
<path d="M181.82 128.462C181.82 128.462 190.76 127.331 195.23 133.362C199.7 139.392 200.387 140.9 200.387 140.9C200.387 140.9 211.047 159.745 208.984 169.168C208.481 170.019 208.022 170.9 207.608 171.806C206.921 173.314 206.921 194.421 207.608 197.813C208.296 201.205 208.984 202.336 208.296 207.236C207.608 212.135 213.797 220.05 206.577 221.558C199.356 223.066 193.854 221.935 191.447 218.543C189.04 215.151 191.104 212.889 183.539 212.889C175.974 212.889 171.16 207.236 171.16 207.236C171.16 207.236 174.943 202.713 173.567 201.959C172.192 201.205 173.567 199.321 174.255 197.436C174.943 195.552 174.943 194.044 173.911 194.044C172.88 194.044 173.567 193.29 174.255 191.406C174.943 189.521 162.22 157.107 169.785 147.684C177.35 138.262 181.132 132.985 181.132 132.985C181.132 132.985 179.757 127.331 181.82 128.462Z" fill="#2F2E41"/>
<path d="M201.418 164.269V180.852L212.422 220.805C212.422 220.805 219.642 241.535 212.422 241.535C205.201 241.535 205.588 221.749 205.588 221.749L190.071 191.783C190.071 191.783 183.882 168.038 184.57 166.153C185.258 164.269 201.418 164.269 201.418 164.269Z" fill="#FFB9B9"/>
<path d="M195.573 139.77C195.573 139.77 205.888 144.293 203.137 156.354C200.386 168.415 203.137 168.038 203.137 168.038C203.137 168.038 189.039 166.53 184.569 169.922L183.538 165.399C183.538 165.399 179.412 139.393 195.573 139.77Z" fill="#2F2E41"/>
<path d="M203.184 103.859C203.978 104.167 204.829 104.255 205.661 104.113C206.494 103.971 207.281 103.604 207.952 103.045C209.248 101.875 209.798 99.715 209.035 98.0748C208.377 96.6585 206.969 95.8815 205.618 95.302C202.639 94.0248 199.502 93.2482 196.311 92.9984C194.79 92.8798 193.193 92.8986 191.835 93.6603C191.164 94.0372 190.58 94.5811 189.915 94.9715C188.692 95.6893 187.269 95.8489 185.947 96.3109C184.595 96.7945 183.353 97.5908 182.306 98.6459C181.258 99.7011 180.43 100.99 179.877 102.427C179.518 103.402 179.267 104.422 179.129 105.463C178.734 108.314 179.01 111.228 179.932 113.928C181.397 118.206 184.472 121.946 184.645 126.511C186.527 125.015 187.224 122.314 188.732 120.375C189.854 118.941 191.386 117.967 193.078 117.612C193.547 117.58 193.997 117.4 194.374 117.094C194.636 116.75 194.801 116.329 194.847 115.884L196.134 109.221C196.396 107.865 196.727 106.386 197.744 105.562C198.377 105.118 199.095 104.841 199.842 104.752C201.618 104.412 203.416 104.232 205.218 104.215" fill="#2F2E41"/>
</g>
</g>
<defs>
<filter id="filter0_b_3_3325" x="-49.7666" y="-49.4756" width="654.142" height="446.709" filterUnits="userSpaceOnUse" color-interpolation-filters="sRGB">
<feFlood flood-opacity="0" result="BackgroundImageFix"/>
<feGaussianBlur in="BackgroundImage" stdDeviation="25"/>
<feComposite in2="SourceAlpha" operator="in" result="effect1_backgroundBlur_3_3325"/>
<feBlend mode="normal" in="SourceGraphic" in2="effect1_backgroundBlur_3_3325" result="shape"/>
</filter>
<linearGradient id="paint0_linear_3_3325" x1="243.5" y1="-50" x2="397" y2="339" gradientUnits="userSpaceOnUse">
<stop stop-color="#FFF5F5"/>
<stop offset="1" stop-color="#ACA9BB"/>
</linearGradient>
<clipPath id="clip0_3_3325">
<rect width="554.142" height="346.709" fill="white" transform="translate(0.233398 0.524414)"/>
</clipPath>
</defs>
</svg>
